<?xml version="1.0" encoding="UTF-8" standalone="no"?>
<!-- Created with Inkscape (http://www.inkscape.org/) -->

<svg
   xmlns:dc="http://purl.org/dc/elements/1.1/"
   xmlns:cc="http://creativecommons.org/ns#"
   xmlns:rdf="http://www.w3.org/1999/02/22-rdf-syntax-ns#"
   xmlns:svg="http://www.w3.org/2000/svg"
   xmlns="http://www.w3.org/2000/svg"
   xmlns:sodipodi="http://sodipodi.sourceforge.net/DTD/sodipodi-0.dtd"
   xmlns:inkscape="http://www.inkscape.org/namespaces/inkscape"
   version="1.1"
   width="72.032639"
   height="151.00002"
   id="svg2"
   inkscape:version="0.48.4 r9939"
   sodipodi:docname="chassis.svg">
  <sodipodi:namedview
     pagecolor="#ffffff"
     bordercolor="#666666"
     borderopacity="1"
     objecttolerance="10"
     gridtolerance="10"
     guidetolerance="10"
     inkscape:pageopacity="0"
     inkscape:pageshadow="2"
     inkscape:window-width="1280"
     inkscape:window-height="969"
     id="namedview7"
     showgrid="false"
     fit-margin-top="0"
     fit-margin-left="0"
     fit-margin-right="0"
     fit-margin-bottom="0"
     inkscape:zoom="1.5733332"
     inkscape:cx="75.36603"
     inkscape:cy="86.429278"
     inkscape:window-x="-2"
     inkscape:window-y="-3"
     inkscape:window-maximized="1"
     inkscape:current-layer="layer2" />
  <metadata
     id="metadata8">
    <rdf:RDF>
      <cc:Work
         rdf:about="">
        <dc:format>image/svg+xml</dc:format>
        <dc:type
           rdf:resource="http://purl.org/dc/dcmitype/StillImage" />
        <dc:title />
      </cc:Work>
    </rdf:RDF>
  </metadata>
  <defs
     id="defs6" />
  <g
     inkscape:groupmode="layer"
     id="layer2"
     inkscape:label="Слой#1"
     style="display:inline"
     transform="translate(-0.04070894,0.81393199)">
    <path
       inkscape:connector-curvature="0"
       d="M 0.88534694,2.299558 C 1.0751169,2.226738 1.2303869,1.957546 1.2303869,1.701362 c 0,-0.256187 0.36966,-0.81442999 0.82147,-1.24054199 l 0.82148,-0.774752 5.91939,0 5.9193901,0 0.85005,0.778614 c 0.56485,0.517388 0.85004,0.98043599 0.85004,1.38016599 0,0.330854 0.10352,0.601553 0.23003,0.601553 0.12652,0 0.23003,0.153663 0.23003,0.341473 0,0.3004073 2.30063,0.323486 19.13042,0.191901 18.13549,-0.141796 19.15237,-0.171518 19.55236,-0.571502 0.23206,-0.232061 0.42193,-0.628304 0.42193,-0.880541 0,-0.273372 0.38558,-0.73792899 0.95462,-1.15013799 l 0.95462,-0.691526 5.81145,0 5.81144,0 0.82485,0.801033 c 0.51591,0.501023 0.82484,1.01793699 0.82484,1.38016599 0,0.318524 0.10369,0.579134 0.23043,0.579134 0.15348,0 0.21109,21.987738 0.17252,65.845423 l -0.0579,65.845426 -0.79939,0.11501 c -0.76948,0.11072 -0.82284,0.18384 -1.42666,1.95524 -0.53616,1.57292 -0.7966,1.99057 -1.79299,2.87534 -0.64114,0.56932 -1.16366,1.20204 -1.16115,1.40605 0.002,0.204 -0.30597,0.76168 -0.68552,1.23927 -0.45415,0.57148 -0.69008,1.12973 -0.69008,1.63287 0,0.97253 -0.74625,1.70253 -1.74042,1.70253 -0.40345,0 -0.86242,0.15527 -1.01991,0.34505 -0.16021,0.19303 -0.66164,0.34504 -1.13821,0.34504 -0.61122,0 -1.00446,0.16244 -1.3921,0.57507 l -0.54025,0.57507 -5.08952,0 c -3.65181,0 -5.16749,-0.078 -5.36555,-0.27604 -0.18062,-0.18061 -0.27603,-1.1348 -0.27603,-2.76033 1.95001,-2.42416 -2.717625,-3.58925 -2.78924,-1.73671 -0.0159,0.41118 -0.0935,2.24852 -0.17252,4.08299 l -0.14361,3.3354 -1.1105,0.0708 c -1.65694,0.1057 -1.76427,-0.0713 -1.76837,-2.91684 -0.002,-1.34455 -0.0869,-2.57594 -0.18873,-2.73643 -0.14301,-0.22531 -1.43946,-0.27772 -5.68966,-0.23003 l -5.50446,0.0618 -0.11501,2.87535 -0.11502,2.87534 -1.43767,0.0685 -1.43767,0.0685 -10e-4,-2.36876 c -6.9e-4,-1.30282 -0.0679,-3.22274 -0.14911,-4.26649 l -0.14773,-1.89773 -1.46109,0 -1.46108,0 0,2.99036 0,2.99036 -5.04296,0 -5.04296,0 -0.68343,-0.57507 c -0.52759,-0.44393 -0.94311,-0.57507 -1.82222,-0.57507 -0.84666,0 -1.2456,-0.11801 -1.55513,-0.46005 -0.22899,-0.25303 -0.6395701,-0.46006 -0.9123901,-0.46006 -0.67499,0 -1.50291,-0.81733 -1.50291,-1.48369 0,-0.3239 -0.28045,-0.78165 -0.69008,-1.12633 -0.50849,-0.42786 -0.69008,-0.77921 -0.69008,-1.3352 0,-0.57818 -0.2347,-0.99833 -1.00415,-1.79757 -0.72793,-0.75611 -1.17934,-1.53341 -1.64101,-2.82574 l -0.63685,-1.78271 -1.18834,0 c -0.65358,0 -1.31254996,-0.12422 -1.46436996,-0.27604 -0.213383,-0.21342 -0.276008,-15.21923 -0.276008,-66.140193 0,-58.3337086 0.03945,-65.879283 0.345048,-65.996549 z M 11.409057,0.77789701 c 1.4233,-0.04036 0.25878,-0.07338 -2.5878101,-0.07338 -2.84659,0 -4.01111,0.03302 -2.58781,0.07338 1.4233,0.04036 3.75233,0.04036 5.1756201,0 z M 8.8212469,2.446401 c 4.3449701,0 5.0606101,-0.04879 5.0606101,-0.345042 0,-0.296248 -0.71564,-0.345042 -5.0606101,-0.345042 -4.34497,0 -5.06061,0.04879 -5.06061,0.345042 0,0.296248 0.71564,0.345042 5.06061,0.345042 z m 2.5878101,0.401745 c 1.4233,-0.04036 0.25878,-0.07338 -2.5878101,-0.07338 -7.1473693,0.032089 -0.1431803,0.1462153 2.5878101,0.07338 z m 54.97661,-2.07024899 c 1.42329,-0.04036 0.25878,-0.07338 -2.58781,-0.07338 -2.8466,0 -4.01111,0.03302 -2.58781,0.07338 1.42329,0.04036 3.75232,0.04036 5.17562,0 z m -2.4728,1.66850399 c 4.4472,0 5.17562,-0.04856 5.17562,-0.345042 0,-0.29648 -0.72842,-0.345042 -5.17562,-0.345042 -4.4472,0 -5.17562,0.04856 -5.17562,0.345042 0,0.29648 0.72842,0.345042 5.17562,0.345042 z m 2.57483,0.401918 c 1.4937,-0.04013 0.33502,-0.0731 -2.57483,-0.07326 -2.90985,-1.61e-4 -4.13196,0.03267 -2.7158,0.07296 1.41616,0.04029 3.79694,0.04042 5.29063,2.3e-4 z"
       id="path2987-3"
       style="fill:#668152;fill-opacity:1;stroke:#000000;stroke-opacity:1;display:inline"
       sodipodi:nodetypes="csscccsssssssscccssssccssccsscsscsccccccccsccccccccccccccsscsssssscscsccssssssssscccssssssssscsscc" />
  </g>
</svg>
