<?xml version="1.0" ?><svg height="24px" version="1.1" viewBox="0 0 24 24" width="24px" xmlns="http://www.w3.org/2000/svg" xmlns:sketch="http://www.bohemiancoding.com/sketch/ns" xmlns:xlink="http://www.w3.org/1999/xlink"><title/><desc/><defs/><g fill="none" fill-rule="evenodd" id="miu" stroke="none" stroke-width="1"><g id="Artboard-1" transform="translate(-719.000000, -587.000000)"><g id="slice" transform="translate(215.000000, 119.000000)"/><path d="M724.5,589.5 L724.5,607.5 C724.5,609.5 726.5,609.5 726.5,609.5 L735.5,609.5 C735.5,609.5 737.5,609.5 737.5,607.5 L737.5,589.5 C737.5,587.5 735.5,587.5 735.5,587.5 L726.5,587.5 C726.5,587.5 724.5,587.5 724.5,589.5 Z M735.5,588.5 C735.608613,588.5 735.841592,588.53883 736.052786,588.644427 C736.350208,588.793138 736.5,589.017826 736.5,589.5 L736.5,607.5 C736.5,607.982174 736.350208,608.206862 736.052786,608.355573 C735.841592,608.46117 735.608613,608.5 735.5,608.5 L726.5,608.5 C726.391387,608.5 726.158408,608.46117 725.947214,608.355573 C725.649792,608.206862 725.5,607.982174 725.5,607.5 L725.5,589.5 C725.5,589.017826 725.649792,588.793138 725.947214,588.644427 C726.158408,588.53883 726.391387,588.5 726.5,588.5 L735.5,588.5 Z M731,608 C731.552285,608 732,607.552285 732,607 C732,606.447715 731.552285,606 731,606 C730.447715,606 730,606.447715 730,607 C730,607.552285 730.447715,608 731,608 L731,608 Z M728.721295,589 C728.599077,589 728.5,589.096554 728.5,589.221103 L728.5,589.279668 C728.5,589.401779 728.599877,589.50077 728.721295,589.50077 L733.278705,589.50077 C733.400923,589.50077 733.5,589.404217 733.5,589.279668 L733.5,589.221103 C733.5,589.098991 733.400123,589 733.278705,589 L728.721295,589 Z M725.5,590 L725.5,591 L736.5,591 L736.5,590 L725.5,590 Z M725.5,604.5 L725.5,605.5 L736.5,605.5 L736.5,604.5 L725.5,604.5 Z" fill="#000000" id="device-smart-phone-horizontal-outline-stroke" transform="translate(731.000000, 598.500000) rotate(-90.000000) translate(-731.000000, -598.500000) "/></g></g></svg>