<?xml version="1.0" encoding="UTF-8" standalone="no"?>
<!-- Created with Inkscape (http://www.inkscape.org/) -->

<svg
   xmlns:dc="http://purl.org/dc/elements/1.1/"
   xmlns:cc="http://creativecommons.org/ns#"
   xmlns:rdf="http://www.w3.org/1999/02/22-rdf-syntax-ns#"
   xmlns:svg="http://www.w3.org/2000/svg"
   xmlns="http://www.w3.org/2000/svg"
   xmlns:sodipodi="http://sodipodi.sourceforge.net/DTD/sodipodi-0.dtd"
   xmlns:inkscape="http://www.inkscape.org/namespaces/inkscape"
   id="svg2"
   version="1.1"
   inkscape:version="0.48.4 r9939"
   width="51.924026"
   height="150.00011"
   sodipodi:docname="tower.svg">
  <metadata
     id="metadata8">
    <rdf:RDF>
      <cc:Work
         rdf:about="">
        <dc:format>image/svg+xml</dc:format>
        <dc:type
           rdf:resource="http://purl.org/dc/dcmitype/StillImage" />
        <dc:title></dc:title>
      </cc:Work>
    </rdf:RDF>
  </metadata>
  <defs
     id="defs6" />
  <sodipodi:namedview
     pagecolor="#ffffff"
     bordercolor="#666666"
     borderopacity="1"
     objecttolerance="10"
     gridtolerance="10"
     guidetolerance="10"
     inkscape:pageopacity="0"
     inkscape:pageshadow="2"
     inkscape:window-width="1280"
     inkscape:window-height="969"
     id="namedview4"
     showgrid="false"
     fit-margin-top="0"
     fit-margin-left="0"
     fit-margin-right="0"
     fit-margin-bottom="0"
     inkscape:zoom="0.65377943"
     inkscape:cx="73.065518"
     inkscape:cy="137.4763"
     inkscape:window-x="-2"
     inkscape:window-y="-3"
     inkscape:window-maximized="1"
     inkscape:current-layer="svg2" />
  <path
     style="fill:#000000"
     d="m 0.09534779,133.07563 c 0.05033357,-0.0553 0.21978405,-2.11102 0.37655878,-4.56817 0.56939753,-8.92432 1.90510513,-28.39752 2.01255323,-29.340925 0.051473,-0.45193 0.2800549,-0.49073 3.5566007,-0.60372 3.4076044,-0.1175 3.5036663,-0.13536 3.5789023,-0.66517 0.046371,-0.32656 -0.074427,-0.60266 -0.3018614,-0.68993 -0.3139262,-0.12047 -0.3791717,-0.61984 -0.3791717,-2.90211 l 0,-2.75661 1.1339793,-0.71915 1.13398,-0.71915 4.87368,0 c 3.611484,0 4.935088,-0.0782 5.110798,-0.30186 0.130419,-0.16602 0.430162,-0.81804 0.666102,-1.44893 0.235937,-0.63089 0.55379,-1.14708 0.706336,-1.14708 0.152546,0 0.451674,-0.29884 0.664725,-0.66409 0.348633,-0.59769 0.405055,-4.28684 0.564257,-36.89402 0.162319,-33.2452 0.144642,-36.25669 -0.214554,-36.5548 -0.296206,-0.24583 -0.391446,-0.75834 -0.391446,-2.10647 0,-1.0267403 0.102318,-1.7816003 0.241489,-1.7816003 0.547542,0 0.223916,-1.3754 -0.482979,-2.05265 -0.913562,-0.87525 -0.959928,-1.83239 -0.120744,-2.49249 0.441246,-0.34709 0.603723,-0.70542 0.603723,-1.33147 0,-0.47112 -0.10867,-0.92374 -0.241489,-1.00583 -0.400513,-0.24753 -0.271632,-1.46753996 0.200131,-1.89447996 0.665093,-0.6019 4.158427,-0.5708 4.712966,0.042 0.440756,0.48703 0.537337,1.61818996 0.158173,1.85251996 -0.132819,0.0821 -0.241489,0.53471 -0.241489,1.00583 0,0.62605 0.162476,0.98438 0.603722,1.33147 0.790829,0.62206 0.794077,1.62575 0.0077,2.36455 -0.583361,0.54804 -0.592871,0.61589 -0.44605,3.1820103 0.129182,2.25779 0.09347,2.68451 -0.257056,3.07184 -0.381533,0.42159 -0.383202,2.71198 -0.0266,36.49628 0.40561,38.42717 0.36532,37.43144 1.514593,37.43144 0.289932,0 0.57067,0.42523 0.916744,1.38857 l 0.498832,1.38856 5.05391,0.12074 c 4.721607,0.11281 5.11188,0.1568 5.935532,0.66899 0.484893,0.30153 0.946741,0.71793 1.026328,0.92533 0.07959,0.2074 0.144708,1.45491 0.144708,2.77224 0,1.96802 -0.0646,2.39514 -0.362234,2.39514 -0.252472,0 -0.362234,0.2542 -0.362234,0.83892 l 0,0.83892 3.682709,0.0667 3.682709,0.0667 0.155724,2.535625 c 0.319536,5.20296 0.959267,14.119 1.539616,21.45784 0.329343,4.16472 0.598806,8.92214 0.598806,10.57204 0,2.86728 -0.03208,3.06086 -0.726097,4.38149 -0.399353,0.75992 -1.805232,2.90306 -3.124181,4.76252 -1.318946,1.85947 -3.065257,4.33171 -3.880693,5.49388 l -1.482606,2.11303 -16.996964,0 c -13.300892,0 -17.0522877,-0.0656 -17.2513762,-0.30186 -0.139926,-0.16603 -0.5085205,-0.69057 -0.8190972,-1.16566 -0.3105767,-0.47509 -1.3062411,-1.94213 -2.2125883,-3.2601 -0.9063472,-1.31797 -2.1318561,-3.10266 -2.7233499,-3.96599 -1.1977762,-1.74822 -2.06096448,-3.49575 -2.44530887,-4.95052 -0.24596389,-0.931 -0.35462191,-3.07326 -0.16637874,-3.28023 z m 0.55738581,-0.27892 c 0.0604423,-0.23089 0.062635,-0.66557 0.004878,-0.96596 -0.0577618,-0.30039 -0.10721633,-0.11148 -0.10989685,0.41979 -0.002681,0.53128 0.0445813,0.77705 0.1050236,0.54617 z m 0.2414891,-2.89787 c 0.0604423,-0.23089 0.062635,-0.66557 0.004878,-0.96596 -0.0577618,-0.30039 -0.10721633,-0.11148 -0.10989686,0.41979 -0.002681,0.53128 0.0445813,0.77705 0.10502361,0.54617 z m 0.2414891,-3.62234 c 0.060442,-0.23088 0.062635,-0.66556 0.00488,-0.96595 -0.057762,-0.3004 -0.1072163,-0.11149 -0.1098969,0.41979 -0.00268,0.53127 0.044581,0.77705 0.1050236,0.54616 z m 0.8311065,11.65184 c 1.0321195,2.16065 7.3833046,11.34718 7.8449641,11.34718 0.7999136,0 2.0250166,-3.55069 2.0250166,-5.86906 0,-1.36102 -0.08605,-1.5961 -1.147073,-3.1339 -3.2554569,-4.7183 -3.2977779,-4.84886 -2.9693841,-9.16053 0.1343959,-1.76456 0.4649728,-6.30539 0.7346147,-10.09073 0.2696419,-3.78534 0.5943554,-8.18648 0.7215839,-9.78031 0.1272309,-1.59383 0.3000478,-3.79345 0.3840401,-4.88804 l 0.1527105,-1.99018 -1.1116468,-0.4765 c -1.0515909,-0.45077 -1.1116492,-0.52775 -1.1116492,-1.42483 0,-0.88176 -0.068141,-0.97558 -0.9708441,-1.33677 -1.2374868,-0.49515 -1.2025578,-0.50235 -1.2025578,0.24809 0,0.61359 -0.038418,0.63128 -1.0650828,0.49056 l -1.0650829,-0.14598 -0.1328938,1.13949 c -0.073092,0.62672 -0.1981225,2.33486 -0.2778429,3.79587 -0.079723,1.46101 -0.3563727,5.80781 -0.6147781,9.65956 -0.2584054,3.85175 -0.5826335,8.68757 -0.7205068,10.74627 -0.137871,2.05869 -0.2934214,3.90608 -0.3456651,4.10531 -0.052244,0.19923 -0.071761,1.39586 -0.043374,2.65919 0.046755,2.0807 0.1329422,2.46721 0.9154514,4.10531 z M 1.371212,122.28912 c 0.066992,-0.16603 0.066992,-0.4377 0,-0.60373 -0.066992,-0.16602 -0.1218047,-0.0302 -0.1218047,0.30186 0,0.33205 0.054813,0.46789 0.1218047,0.30187 z m 0.2414891,-3.38085 c 0.066992,-0.16603 0.066992,-0.4377 0,-0.60372 -0.066991,-0.16603 -0.1218047,-0.0302 -0.1218047,0.30186 0,0.33204 0.054813,0.46788 0.1218047,0.30186 z m 0.2414891,-3.86383 c 0.066991,-0.16602 0.066991,-0.4377 0,-0.60372 -0.066992,-0.16602 -0.1218047,-0.0302 -0.1218047,0.30186 0,0.33205 0.054813,0.46789 0.1218047,0.30186 z m 0.239958,-3.13476 c 0.066149,-0.1635 0.070174,-0.48951 0.00896,-0.72447 -0.061227,-0.23496 -0.1153497,-0.10119 -0.1202712,0.29727 -0.00493,0.39846 0.045173,0.5907 0.111324,0.4272 z m 0.2490091,-3.74486 c 0.060442,-0.23089 0.062635,-0.66557 0.00488,-0.96596 -0.057762,-0.30039 -0.1072163,-0.11148 -0.1098969,0.41979 -0.00268,0.53128 0.044581,0.77705 0.1050236,0.54617 z m 0.2485333,-3.38366 c 0.055332,-0.36526 0.055332,-0.96294 0,-1.32819 -0.05533,-0.36526 -0.1006019,-0.0664 -0.1006019,0.66409 0,0.73051 0.045272,1.02935 0.1006019,0.6641 z m 1.4570848,-3.93507 c 0.4054409,0.12249 0.5433505,0.0661 0.5433505,-0.22213 0,-0.48272 -1.0153457,-0.905285 -1.2577621,-0.52346 -0.2056836,0.32398 -0.011978,0.52613 0.7144116,0.74559 z m 0.9307401,0.3077 c 0.080244,-0.0802 0.088822,-0.28853 0.019054,-0.46286 -0.077088,-0.19264 -0.1343114,-0.13542 -0.1458981,0.14591 -0.010481,0.25456 0.046591,0.39719 0.1268349,0.31695 z m 1.9668007,-2.055495 c 2.4232755,-0.11907 2.6608259,-0.22045 0.6040512,-0.25781 -1.0957568,-0.0199 -1.9924324,0.0453 -1.9926135,0.14494 -1.811e-4,0.0996 0.6246719,0.1504 1.3885623,0.11287 z m 1.5846249,1.054145 1.1616906,0.55427 -0.07499,-0.64934 c -0.071365,-0.617955 -0.1450215,-0.651685 -1.5239242,-0.697925 -0.7969141,-0.0267 -1.2859295,0.0161 -1.086701,0.0951 0.1992285,0.079 0.8849948,0.39309 1.5239242,0.697925 z m -0.4120673,33.84387 c 0.080244,-0.0802 0.088822,-0.28853 0.019054,-0.46286 -0.077088,-0.19264 -0.1343114,-0.13542 -0.1458981,0.1459 -0.010481,0.25457 0.04659,0.3972 0.1268349,0.31696 z m 0.2414891,-6.03723 c 0.080244,-0.0802 0.088822,-0.28853 0.019054,-0.46286 -0.077088,-0.19264 -0.1343114,-0.13542 -0.1458981,0.14591 -0.010481,0.25456 0.046591,0.39719 0.1268349,0.31695 z m 0.3894011,2.28308 c 0.173283,-0.17329 0.1875405,-0.28577 0.036223,-0.28577 -0.3223348,0 -0.6079222,0.28559 -0.4467548,0.44676 0.068622,0.0686 0.2533607,-0.004 0.4105314,-0.16099 z M 8.6370683,102.91291 c 0.099614,0.002 0.4256246,0.0688 0.7244673,0.14891 0.7987324,0.21405 0.6720354,-0.31475 -0.1811168,-0.75593 -0.6898329,-0.35672 -0.7244673,-0.35125 -0.7244673,0.11455 0,0.26904 0.081503,0.49066 0.1811168,0.49247 z m -0.01519,22.39764 c 0.060442,-0.23089 0.062635,-0.66557 0.00488,-0.96596 -0.057762,-0.30039 -0.1072163,-0.11149 -0.1098968,0.41979 -0.00268,0.53128 0.044581,0.77705 0.1050236,0.54617 z m 0.2420276,-2.90069 c 0.060739,-0.23243 0.060739,-0.61278 0,-0.84521 -0.060742,-0.23243 -0.1104402,-0.0423 -0.1104402,0.4226 0,0.46487 0.049698,0.65504 0.1104402,0.42261 z m 0.6613831,13.0686 c 0.583706,1.15004 3.078588,3.89601 3.539765,3.89601 0.09683,0 0.315302,-0.54335 0.485506,-1.20745 0.232508,-0.90719 0.421553,-1.20744 0.760249,-1.20744 0.377822,0 0.341115,-0.095 -0.226771,-0.58657 -0.450691,-0.39017 -0.701127,-0.4844 -0.747944,-0.28144 -0.08252,0.35773 -1.564748,1.1095 -2.187554,1.1095 -0.288833,0 -0.661776,-0.48414 -1.133941,-1.47202 -0.6806056,-1.42399 -0.6887221,-1.48285 -0.2488231,-1.80452 0.3939291,-0.28805 0.4042991,-0.35186 0.077542,-0.47725 -0.5119231,-0.19644 -0.9846308,-1.4087 -0.7892951,-2.02415 0.1006382,-0.31708 0.052485,-0.50078 -0.1312686,-0.50078 -0.5426405,0 -0.1313194,3.11025 0.6025346,4.55611 z M 9.104852,119.03183 c 0.060442,-0.23089 0.062635,-0.66557 0.00488,-0.96596 -0.057762,-0.30039 -0.1072163,-0.11148 -0.1098968,0.41979 -0.00268,0.53128 0.044581,0.77705 0.1050236,0.54617 z m -0.00599,5.67218 c 0.066992,-0.16603 0.066992,-0.4377 0,-0.60373 -0.066992,-0.16602 -0.1218047,-0.0302 -0.1218047,0.30187 0,0.33204 0.054813,0.46788 0.1218047,0.30186 z m 0.2519818,-8.9351 c 0.057561,-0.29884 0.057561,-0.78786 0,-1.0867 -0.057559,-0.29884 -0.1046541,-0.0543 -0.1046541,0.54335 0,0.59769 0.047095,0.84219 0.1046541,0.54335 z m -0.010481,6.27872 c 0.066992,-0.16603 0.066992,-0.4377 0,-0.60373 -0.066992,-0.16602 -0.1218047,-0.0302 -0.1218047,0.30187 0,0.33204 0.054813,0.46788 0.1218047,0.30186 z M 9.6299082,96.630905 c 0.1144006,0 0.1560672,-0.27168 0.092592,-0.60372 -0.063475,-0.33205 -0.1570742,-0.60373 -0.2080018,-0.60373 -0.050925,0 -0.092592,0.27168 -0.092592,0.60373 0,0.33204 0.093601,0.60372 0.2080018,0.60372 z m -0.049599,15.761755 c 0.066149,-0.1635 0.070174,-0.48951 0.00896,-0.72447 -0.061227,-0.23496 -0.1153497,-0.10119 -0.1202712,0.29727 -0.00493,0.39845 0.045173,0.59069 0.111324,0.4272 z m 0.00807,6.39486 c 0.060739,-0.23243 0.060739,-0.61277 0,-0.84521 -0.060742,-0.23243 -0.1104402,-0.0423 -0.1104402,0.42261 0,0.46486 0.049698,0.65504 0.1104402,0.4226 z m -0.00654,5.91649 c 0.066992,-0.16603 0.066992,-0.4377 0,-0.60373 -0.066991,-0.16602 -0.1218046,-0.0302 -0.1218046,0.30187 0,0.33204 0.054813,0.46788 0.1218046,0.30186 z m 0.1298632,5.54217 c 0.3499806,-0.34998 1.6421266,-0.38798 1.6421266,-0.0483 0,0.40664 0.451546,0.26847 0.711782,-0.21778 0.210134,-0.39264 0.174644,-0.44067 -0.244593,-0.33104 -0.31231,0.0817 -0.706568,-0.0748 -1.085708,-0.43103 -0.624184,-0.58639 -0.9342614,-0.48419 -1.1411959,0.37613 -0.2010276,0.83577 -0.1804213,0.95003 0.1175883,0.65202 z m 0.2384705,19.4358 c 0.1926431,-0.0771 0.1354231,-0.13432 -0.1459005,-0.1459 -0.2545681,-0.0105 -0.3971988,0.0466 -0.3169544,0.12683 0.080247,0.0802 0.2885312,0.0888 0.4628549,0.0191 z M 9.8338231,109.49019 c 0.057561,-0.29884 0.057561,-0.78785 0,-1.0867 -0.057559,-0.29884 -0.1046541,-0.0543 -0.1046541,0.54335 0,0.59769 0.047095,0.8422 0.1046541,0.54335 z m -0.00449,6.16079 c 0.060442,-0.23088 0.062635,-0.66556 0.00488,-0.96595 -0.057762,-0.3004 -0.1072163,-0.11149 -0.1098969,0.41979 -0.00268,0.53127 0.044581,0.77705 0.1050236,0.54616 z m -0.00751,6.40124 c 0.066149,-0.16349 0.070174,-0.4895 0.00896,-0.72446 -0.061227,-0.23497 -0.1153496,-0.1012 -0.1202712,0.29726 -0.00493,0.39846 0.045173,0.5907 0.1113241,0.4272 z m 0.2210809,10.66405 c 0.629222,0.62922 0.896296,0.45722 0.723151,-0.46573 -0.103451,-0.55144 -0.06587,-0.84521 0.10812,-0.84521 0.146678,0 0.204164,0.10116 0.12775,0.2248 -0.07642,0.12364 -0.03804,0.28717 0.08529,0.36338 0.123326,0.0762 0.187748,-0.0521 0.143162,-0.28517 -0.04459,-0.23307 -0.09105,-0.47809 -0.103244,-0.5445 -0.0122,-0.0664 -0.122546,-0.27943 -0.245222,-0.47338 -0.19089,-0.30179 -0.29481,-0.28768 -0.72077,0.0978 -0.5921266,0.53587 -0.6451866,1.40106 -0.118238,1.92801 z m -0.2327641,5.45075 c 0.1998631,0 0.3128851,-0.4689 0.1389359,-0.57641 -0.1128503,-0.0697 -0.2051812,0.0314 -0.2051812,0.2248 0,0.19339 0.029812,0.35161 0.066245,0.35161 z M 10.253354,92.767075 c 0.335339,-0.90924 0.314455,-1.10567 -0.09091,-0.85514 -0.141655,0.0875 -0.2492863,0.50595 -0.2391824,0.92977 l 0.018377,0.77059 0.3117214,-0.84522 z m -0.188533,5.37314 c 0.06699,-0.16603 0.06699,-0.4377 0,-0.60373 -0.066991,-0.16602 -0.1218042,-0.0302 -0.1218042,0.30186 0,0.33205 0.054813,0.46789 0.1218042,0.30187 z m 0.006,2.779935 c 0.06044,-0.23089 0.06264,-0.66557 0.0049,-0.965955 -0.05776,-0.30039 -0.1072168,-0.11149 -0.1098973,0.419785 -0.00268,0.53128 0.044581,0.77705 0.1050233,0.54617 z m 4.83e-4,5.06845 c 0.06074,-0.23243 0.06074,-0.61278 0,-0.84521 -0.06074,-0.23243 -0.1104398,-0.0423 -0.1104398,0.42261 0,0.46486 0.049699,0.65503 0.1104398,0.4226 z m 0,6.52021 c 0.06074,-0.23244 0.06074,-0.61278 0,-0.84521 -0.06074,-0.23244 -0.1104398,-0.0423 -0.1104398,0.4226 0,0.46487 0.049699,0.65504 0.1104398,0.42261 z m -4.83e-4,6.28153 c 0.06044,-0.23089 0.06264,-0.66557 0.0049,-0.96596 -0.05776,-0.30039 -0.1072168,-0.11148 -0.1098973,0.41979 -0.00268,0.53128 0.044581,0.77706 0.1050233,0.54617 z m 0.896773,5.65972 c 1.390332,-1.28157 2.598659,-1.87806 4.504684,-2.22375 5.246549,-0.95154 9.904361,2.05283 11.234978,7.24674 0.977287,3.81472 -0.754586,8.37595 -3.94966,10.4022 l -1.114289,0.70667 0.952863,-0.004 c 1.066312,-0.004 1.399299,-0.16401 1.626994,-0.78114 0.121807,-0.33014 0.437621,-0.42261 1.443394,-0.42261 0.708109,0 1.4224,0.13493 1.587313,0.29984 0.238799,0.2388 0.341999,0.23164 0.506905,-0.0352 0.256882,-0.41564 0.980272,-0.17102 0.980272,0.33149 0,0.31705 0.564555,0.36982 3.956405,0.36982 3.753311,0 3.962887,-0.0248 4.082707,-0.48298 0.07774,-0.29727 0.329393,-0.48298 0.654495,-0.48298 0.325103,0 0.576759,0.18571 0.654496,0.48298 0.06947,0.26564 0.216807,0.48298 0.327426,0.48298 0.286971,0 2.244786,-2.79729 3.113019,-4.44783 0.732226,-1.39199 1.030554,-3.52131 0.493352,-3.52131 -0.132819,0 -0.241489,0.17339 -0.241489,0.38532 0,0.54959 -0.894635,1.73289 -1.44134,1.90641 -0.325211,0.10322 -0.484907,0.41264 -0.537076,1.04061 -0.07221,0.8693 -0.100629,0.89372 -1.040198,0.89372 -0.955425,0 -0.965678,-0.01 -0.94044,-0.88271 0.02043,-0.70643 -0.08819,-0.93451 -0.543906,-1.14215 -1.327297,-0.60475 -1.940343,-2.88886 -1.173413,-4.37194 0.541368,-1.04689 1.282363,-1.4516 2.657759,-1.4516 1.740255,0 2.701899,0.71981 3.064922,2.29415 0.250084,1.08454 -0.08478,-5.43386 -0.731939,-14.24786 -0.155572,-2.1188 -0.175497,-2.17525 -0.793202,-2.24688 -0.521853,-0.0605 -0.717336,0.0886 -1.108208,0.84522 -0.261023,0.50527 -0.936116,1.24469 -1.50021,1.64315 -0.941083,0.66475 -1.191263,0.72447 -3.035064,0.72447 -1.87306,0 -2.072423,-0.0497 -2.93744,-0.73296 -0.511667,-0.40413 -1.198848,-1.29755 -1.531722,-1.99143 -0.466303,-0.97201 -0.729125,-1.25866 -1.154651,-1.25933 -0.789894,-0.001 -0.901099,-0.56472 -0.439273,-2.22581 0.859189,-3.09034 2.761703,-4.75349 5.676158,-4.96201 1.294014,-0.0926 1.85978,-0.0156 2.736991,0.37243 1.080236,0.47784 1.10857,0.47852 1.22599,0.0295 0.06728,-0.25728 0.331412,-0.45964 0.599948,-0.45964 0.263863,0 0.5423,-0.163 0.618753,-0.36223 0.07645,-0.19923 0.312975,-0.36224 0.525611,-0.36224 0.259492,0 0.361233,-0.17243 0.309439,-0.52443 -0.10449,-0.71012 -0.604986,-0.83635 -0.580033,-0.14629 0.01215,0.33589 -0.104608,0.52415 -0.299924,0.48362 -0.193641,-0.0402 -0.249466,0.0475 -0.141501,0.22216 0.123271,0.19946 0.04818,0.23857 -0.243291,0.12673 -0.23188,-0.089 -0.521382,-0.16179 -0.643339,-0.16179 -0.121954,0 -0.221737,-0.27167 -0.221737,-0.60372 l 0,-0.60372 -13.402645,0 -13.402644,0 0,0.72447 c 0,0.6071 0.0955,0.72446 0.58947,0.72446 0.74893,0 0.993037,0.38666 0.578393,0.91617 -0.288616,0.36856 -0.279295,0.37808 0.08836,0.0902 0.593928,-0.46503 1.447662,-0.1348 1.353858,0.52367 -0.08971,0.62974 -1.127894,0.86283 -1.510782,0.3392 -0.140771,-0.19252 -0.481102,-0.42149 -0.756293,-0.50883 -0.490648,-0.15573 -0.508678,-0.0335 -0.930108,6.30394 -0.236369,3.55452 -0.512171,7.33212 -0.612894,8.39467 -0.100723,1.06255 -0.197939,2.24459 -0.2160386,2.62676 l -0.032905,0.69485 1.0626946,-0.97955 z m 14.815212,-11.10809 1.388563,0.0724 0.06943,2.23378 0.06943,2.23377 -1.457995,0 -1.457998,0 0,-2.3062 0,-2.3062 1.388562,0.0724 z m -0.974522,3.03499 c 0.0551,-0.36288 0.05621,-1.0149 0.0025,-1.44894 -0.05375,-0.43404 -0.09883,-0.13714 -0.100185,0.65977 -0.0014,0.79692 0.04262,1.15204 0.09772,0.78917 z m 0.965986,0.73582 c 0.616975,0.0877 0.87837,-0.5787 0.750797,-1.91418 -0.06629,-0.69391 -0.180989,-0.83005 -0.754828,-0.89588 l -0.676659,-0.0776 0.07294,1.40581 c 0.06437,1.24072 0.135748,1.41475 0.607753,1.48187 z m 0.37077,0.44612 c 0.166024,-0.067 0.03019,-0.12181 -0.301861,-0.12181 -0.332048,0 -0.467885,0.0548 -0.301862,0.12181 0.166024,0.067 0.437699,0.067 0.603723,0 z m 0.834086,-1.30369 c 0.05732,-0.29702 0.0588,-0.84037 0.0033,-1.20745 -0.05551,-0.36707 -0.102406,-0.12406 -0.10422,0.54003 -0.0017,0.6641 0.0436,0.96444 0.100923,0.66742 z m 8.979831,3.80013 c 0.205396,-0.74439 1.199416,-0.87349 3.166122,-0.41121 l 1.32819,0.3122 -0.0494,1.40697 c -0.02717,0.77384 -0.09322,1.4508 -0.146772,1.50435 -0.05355,0.0536 -1.09049,-0.0955 -2.304306,-0.33114 -2.205698,-0.42827 -2.206923,-0.42892 -2.183675,-1.15298 0.0128,-0.39846 0.09823,-0.99614 0.189845,-1.32819 z m 0.932348,1.28633 c 0.09961,0.0591 0.751635,0.18434 1.448935,0.2784 1.170087,0.15784 1.267817,0.13314 1.267817,-0.32037 0,-0.62089 -0.09029,-0.66948 -1.630051,-0.87718 -1.170087,-0.15783 -1.267818,-0.13313 -1.267818,0.32038 0,0.27026 0.0815,0.53971 0.181117,0.59877 z m -26.785166,5.08826 c 0.110684,0.0684 0.201243,-0.0291 0.201243,-0.21662 0,-0.18754 -0.09056,-0.28502 -0.201243,-0.21661 -0.1106815,0.0684 -0.2012399,0.16588 -0.2012399,0.21661 0,0.0507 0.090558,0.14821 0.2012399,0.21662 z m 0.200183,-17.6642 c 0.06699,-0.16603 0.06699,-0.4377 0,-0.60373 -0.06699,-0.16602 -0.121805,-0.0302 -0.121805,0.30186 0,0.33205 0.05481,0.46789 0.121805,0.30187 z m 0.01048,6.76169 c 0.05756,-0.29884 0.05756,-0.78786 0,-1.0867 -0.05756,-0.29884 -0.104654,-0.0543 -0.104654,0.54335 0,0.59769 0.0471,0.84219 0.104654,0.54335 z M 10.9916,95.906435 c 0.483481,0 0.603723,-0.12062 0.603723,-0.60561 l 0,-0.6056 14.549717,0.0623 14.549718,0.0623 0.07717,0.54335 c 0.04244,0.29884 0.232614,0.54335 0.422606,0.54335 0.461056,0 0.457064,-0.026 -0.398942,-2.59541 l -0.744383,-2.23437 -5.021788,0 c -3.993276,0 -5.078861,0.0688 -5.300449,0.33577 -0.153263,0.18467 -0.837581,0.5762 -1.520703,0.87007 -1.835404,0.78957 -4.039806,0.62529 -5.732993,-0.42726 l -1.252479,-0.77858 -4.63404,0 -4.634043,0 -0.334439,0.75555 c -0.392318,0.88631 -1.17859,3.33689 -1.210367,3.77237 -0.01217,0.16687 0.247961,0.30186 0.581694,0.30186 z m 14.911951,5.495665 15.39493,0.0622 0,-2.295935 c 0,-1.36963 -0.09743,-2.29593 -0.241489,-2.29593 -0.132819,0 -0.241489,0.43468 -0.241489,0.96595 0,0.86937 -0.06037,0.96596 -0.603723,0.96596 -0.554531,0 -0.603723,0.0885 -0.603723,1.0867 l 0,1.086695 -1.32819,0 -1.32819,0 0,-1.086695 0,-1.0867 -10.987754,0 -10.987753,0 0,1.220065 0,1.22006 -1.267818,-0.073 -1.267817,-0.073 -0.07793,-0.95552 c -0.0493,-0.604545 -0.248882,-1.075245 -0.543351,-1.281505 -0.306343,-0.21457 -0.465424,-0.61021 -0.465424,-1.15751 0,-0.67563 -0.09224,-0.83152 -0.492042,-0.83152 -0.4646,0 -0.488167,0.12456 -0.422606,2.23377 l 0.06944,2.233775 15.394929,0.0622 z m -15.357271,4.47035 c 0.06615,-0.16349 0.07017,-0.4895 0.009,-0.72446 -0.06123,-0.23497 -0.11535,-0.1012 -0.120271,0.29726 -0.0049,0.39846 0.04517,0.5907 0.111324,0.4272 z m 0.01456,6.39487 c 0.05533,-0.36525 0.05533,-0.96294 0,-1.32819 -0.05533,-0.36525 -0.100601,-0.0664 -0.100601,0.66409 0,0.73051 0.04527,1.02935 0.100601,0.6641 z m 15.282338,-8.63324 c 15.052819,0 15.213813,-0.005 15.213813,-0.48298 0,-0.47786 -0.160994,-0.48297 -15.213813,-0.48297 -15.052819,0 -15.213813,0.005 -15.213813,0.48297 0,0.47787 0.160994,0.48298 15.213813,0.48298 z m -15.04789,5.01372 c 0.06044,-0.23089 0.06264,-0.66557 0.0049,-0.96596 -0.05776,-0.30039 -0.107217,-0.11148 -0.109897,0.41979 -0.0027,0.53128 0.04458,0.77705 0.105024,0.54617 z m 0.11433,26.73074 c 0.295878,0.64938 0.415016,0.7038 1.026875,0.46901 0.342832,-0.13156 0.33962,-0.21558 -0.03232,-0.84522 -0.401877,-0.68032 -0.786033,-0.86592 -1.113818,-0.53814 -0.207507,0.20751 -0.209395,0.19303 0.119259,0.91435 z m 15.094553,-32.9519 c 13.209152,0 15.05282,-0.0443 15.05282,-0.36169 0,-0.31741 -1.842485,-0.36136 -15.05282,-0.35902 -13.158322,0.002 -15.052821,0.0478 -15.052821,0.36168 0,0.31387 1.893306,0.35903 15.052821,0.35903 z m -14.966851,3.32047 c 0.06074,-0.23243 0.06074,-0.61278 0,-0.84521 -0.06074,-0.23243 -0.11044,-0.0423 -0.11044,0.42261 0,0.46486 0.0497,0.65504 0.11044,0.4226 z m 0.466992,20.24886 c 0.358812,0 0.479073,-0.089 0.342521,-0.25356 -0.115744,-0.13946 -0.192513,-0.32601 -0.170603,-0.41456 0.0219,-0.0885 -0.05072,-0.25155 -0.161404,-0.36223 -0.110684,-0.11068 -0.165019,-0.0382 -0.120744,0.16099 0.04427,0.19923 -0.03723,0.34111 -0.181117,0.31528 -0.143889,-0.0258 -0.261615,0.0883 -0.261615,0.25356 0,0.16529 0.248833,0.30052 0.552962,0.30052 z m -0.0533,2.49193 c 0.507274,0.421 1.531574,-1.04248 1.096529,-1.56668 -0.262851,-0.31671 -0.370905,-0.29537 -0.867716,0.17136 -0.649482,0.61015 -0.712422,0.99396 -0.228813,1.39532 z m 0.08394,11.40035 c 0.383016,0.30038 0.391557,0.29184 0.09118,-0.0912 -0.315474,-0.40226 -0.513782,-0.53019 -0.513782,-0.33143 0,0.0501 0.190172,0.24031 0.422606,0.4226 z m 0.526663,-15.37567 c 0.123643,0.0764 0.281866,0.0466 0.351611,-0.0662 0.06974,-0.11285 -0.03142,-0.20518 -0.224803,-0.20518 -0.407191,0 -0.442767,0.0761 -0.126808,0.27143 z m 20.724376,25.1854 c 3.818547,-0.0374 0.694281,-0.0679 -6.942811,-0.0679 -7.637092,0 -10.761357,0.0306 -6.942811,0.0679 3.818546,0.0374 10.067076,0.0374 13.885622,0 z M 33.02748,95.845915 c 3.818547,-0.0374 0.694282,-0.0679 -6.942811,-0.0679 -7.637092,0 -10.761357,0.0306 -6.942811,0.0679 3.818547,0.0374 10.067076,0.0374 13.885622,0 z m -16.913052,1.92967 c 0.768558,-0.0481 0.202008,-0.0879 -1.259001,-0.0884 -1.461009,-4.8e-4 -2.08983,0.0388 -1.397379,0.0874 0.69245,0.0486 1.887821,0.0491 2.65638,9.6e-4 z M 14.010215,126.8517 c 0,0.10945 0.353178,0.0306 0.784839,-0.17525 0.740051,-0.35291 0.78484,-0.4475 0.78484,-1.65759 0,-1.42633 0.005,-1.42506 -1.87318,-0.47114 -1.442499,0.73261 -1.480302,0.83577 -0.549072,1.49835 0.468914,0.33364 0.852573,0.69617 0.852573,0.80563 z m 11.818579,22.42382 13.509002,0 -0.589335,-1.73272 c -0.430797,-1.26659 -0.589337,-2.25113 -0.589337,-3.65976 0,-1.85159 -0.01729,-1.9114 -0.441621,-1.52739 -0.249794,0.22607 -0.852947,0.40197 -1.388562,0.40497 l -0.946942,0.005 1.006845,0.45715 c 1.247961,0.56662 1.615053,1.20485 1.405701,2.44399 -0.326672,1.93355 -2.690995,3.02098 -6.121917,2.81567 -2.59732,-0.15543 -3.787359,-0.50881 -4.663346,-1.3848 -1.390472,-1.39047 -0.630385,-3.46137 1.490278,-4.06033 0.610318,-0.17238 0.694208,-0.24478 0.301861,-0.2605 -0.298843,-0.012 -0.760691,-0.23912 -1.026329,-0.50476 -0.460382,-0.46038 -0.804962,-0.48298 -7.365416,-0.48298 l -6.882439,0 0,2.02326 c 0,1.56789 -0.133223,2.36957 -0.591919,3.56196 -0.325556,0.84629 -0.597232,1.62021 -0.603723,1.71983 -0.0065,0.0996 6.067247,0.18111 13.497199,0.18111 z M 16.364733,97.078375 c 2.930985,-0.0274 3.471085,-0.0767 2.354519,-0.21528 -2.21913,-0.27533 -6.157972,-0.26939 -6.157972,0.009 0,0.15227 1.405141,0.22837 3.803453,0.20599 z m -3.451856,31.831565 c 0.193387,0 0.294546,-0.0923 0.224802,-0.20518 -0.06974,-0.11285 -0.227968,-0.14266 -0.351611,-0.0662 -0.315959,0.19527 -0.280383,0.27142 0.126809,0.27142 z m 0.962327,2.97837 c 1.794561,0 1.886498,-0.35426 0.114726,-0.44207 -0.891416,-0.0442 -1.428664,0.0256 -1.428664,0.18563 0,0.1495 0.547915,0.25644 1.313938,0.25644 z m -1.13802,12.73855 c 0.0521,-0.49807 0.0521,-1.3131 0,-1.81117 -0.0521,-0.49807 -0.09473,-0.0906 -0.09473,0.90558 0,0.99615 0.04263,1.40366 0.09473,0.90559 z m 0.792994,-3.2694 c 1.019654,-0.14965 1.110993,-0.45435 0.100849,-0.33642 -0.45555,0.0532 -0.828272,0.17465 -0.828272,0.26994 0,0.0953 0.327341,0.1252 0.727423,0.0665 z m 0.415055,-8.81882 c 0.234962,-0.0612 0.101191,-0.11535 -0.297266,-0.12028 -0.398457,-0.005 -0.590697,0.0452 -0.427201,0.11133 0.163495,0.0661 0.489505,0.0702 0.724467,0.009 z m 0.12534,-34.057375 c 0.166024,-0.067 0.03019,-0.12181 -0.301861,-0.12181 -0.332048,0 -0.467885,0.0548 -0.301862,0.12181 0.166024,0.067 0.437699,0.067 0.603723,0 z m -0.241489,1.743955 c 0.408882,-0.0211 0.438764,-0.0553 0.120745,-0.13845 -0.232434,-0.0607 -0.422606,-0.260065 -0.422606,-0.442955 0,-0.1829 0.190172,-0.4433 0.422606,-0.57868 0.377416,-0.21982 0.364503,-0.24693 -0.120745,-0.25349 -0.444362,-0.006 -0.543351,0.12465 -0.543351,0.71713 0,0.598605 0.0944,0.719595 0.543351,0.696445 z m 1.806012,30.07332 c 2.478896,0.07 2.963398,0.30207 2.963398,1.4192 0,1.34511 -0.517792,1.6195 -3.056042,1.6195 -1.474801,0 -2.256719,0.0917 -2.256719,0.26458 0,0.63824 1.146113,1.77653 2.338281,2.32233 1.568685,0.71816 2.645934,0.6125 4.27258,-0.41909 2.005277,-1.27171 2.669133,-3.70189 1.609308,-5.8912 -0.610185,-1.26047 -1.515617,-1.99147 -3.031927,-2.44781 -1.181527,-0.35559 -2.139331,-0.18497 -3.439653,0.6127 -0.77432,0.475 -1.809656,1.8652 -1.680916,2.25705 0.03617,0.11007 1.062926,0.22831 2.28169,0.26274 z m -0.240928,2.2401 c 0.234961,-0.0612 0.101191,-0.11535 -0.297266,-0.12028 -0.398457,-0.005 -0.590697,0.0452 -0.427202,0.11133 0.163496,0.0661 0.489506,0.0702 0.724468,0.009 z m -0.02708,6.60381 c 0.711499,0.23482 0.912763,0.22708 1.083003,-0.0416 0.115002,-0.18154 0.210762,-0.39835 0.212796,-0.48181 0.005,-0.20606 -1.871138,-0.67005 -2.03734,-0.50385 -0.350195,0.3502 -0.05001,0.76607 0.741541,1.0273 z M 15.217649,123.1947 c 0.265638,0.14216 0.482978,0.20415 0.482978,0.13774 0,-0.0664 -0.21734,-0.23706 -0.482978,-0.37923 -0.265638,-0.14216 -0.482978,-0.20415 -0.482978,-0.13774 0,0.0664 0.21734,0.23707 0.482978,0.37923 z m -0.241489,18.35317 c 0.132819,0 0.241489,-0.11508 0.241489,-0.25574 0,-0.14066 -0.10867,-0.18858 -0.241489,-0.10649 -0.132819,0.0821 -0.241489,0.19717 -0.241489,0.25574 0,0.0586 0.10867,0.10649 0.241489,0.10649 z m 1.98796,-43.051525 c 0.434041,-0.0537 0.137144,-0.0988 -0.65977,-0.10019 -0.796914,-10e-4 -1.152038,0.0426 -0.789164,0.0977 0.362873,0.0551 1.014894,0.0562 1.448934,0.002 z M 15.504418,140.2639 c 0.192643,-0.0771 0.135422,-0.13431 -0.145901,-0.1459 -0.254568,-0.0105 -0.397199,0.0466 -0.316954,0.12684 0.08025,0.0802 0.288531,0.0888 0.462855,0.019 z m 1.645144,1.04248 c 0.796914,0 1.449133,-0.0815 1.449374,-0.18111 2.42e-4,-0.0996 -0.651779,-0.1443 -1.448934,-0.0993 -1.870713,0.10561 -1.870988,0.28041 -4.83e-4,0.28041 z m 0.868231,-18.36192 c 0.319386,-0.12143 0.580771,-0.25064 0.580853,-0.28713 8.2e-5,-0.0365 -0.570436,-0.0235 -1.267817,0.029 -1.116677,0.0839 -1.185985,0.11819 -0.580854,0.28713 0.377911,0.1055 0.948429,0.0925 1.267818,-0.029 z m -0.01876,17.31024 c 0.146883,-0.20088 0.586362,-0.4418 0.976616,-0.53537 1.080065,-0.25899 1.117737,-0.32651 0.593177,-1.06319 -0.268041,-0.37643 -0.48735,-0.87049 -0.48735,-1.09791 0,-0.31096 -0.134734,-0.37738 -0.54335,-0.26788 -0.298843,0.0801 -0.760691,0.14876 -1.026329,0.15261 -0.364571,0.005 -0.40242,0.058 -0.154384,0.21518 0.246143,0.15596 0.285902,0.51859 0.158456,1.44524 -0.154196,1.12114 -0.230238,1.24067 -0.811573,1.27569 -0.501256,0.0302 -0.459051,0.0607 0.193119,0.13976 0.559714,0.0678 0.922503,-0.0192 1.101618,-0.26413 z M 17.5118,125.3681 c 0.925707,0 1.086701,-0.0716 1.086701,-0.48298 0,-0.41142 -0.160994,-0.48297 -1.086701,-0.48297 -0.925708,0 -1.086701,0.0716 -1.086701,0.48297 0,0.41143 0.160993,0.48298 1.086701,0.48298 z m -0.558444,0.88943 c 0.192643,-0.0771 0.135422,-0.13431 -0.1459,-0.1459 -0.254568,-0.0105 -0.397199,0.0466 -0.316955,0.12684 0.08025,0.0802 0.288531,0.0888 0.462855,0.019 z m 0.116823,6.59673 c 0.336242,0 1.04473,-0.81473 1.030035,-1.1845 -0.0099,-0.25069 -0.09156,-0.19546 -0.233705,0.15818 -0.120122,0.29884 -0.384907,0.54335 -0.588418,0.54335 -0.203507,0 -0.370014,0.10867 -0.370014,0.24148 0,0.13282 0.07295,0.24149 0.162102,0.24149 z m 0.932334,-6.43584 c 0.491635,-0.18866 0.442845,-0.30249 -0.111749,-0.26071 -0.256438,0.0193 -0.415963,0.11648 -0.354501,0.21593 0.06146,0.0995 0.271274,0.1196 0.46625,0.0448 z m 3.916463,-28.643105 c 0.763709,-0.0479 0.138856,-0.0871 -1.388563,-0.0871 -1.527418,0 -2.152271,0.0392 -1.388562,0.0871 0.763709,0.0479 2.013416,0.0479 2.777125,0 z m 0,0.72447 c 0.763709,-0.0479 0.138856,-0.0871 -1.388563,-0.0871 -1.527418,0 -2.152271,0.0392 -1.388562,0.0871 0.763709,0.0479 2.013416,0.0479 2.777125,0 z M 18.64378,123.60115 c 0.192643,-0.0771 0.135422,-0.13431 -0.145901,-0.1459 -0.254568,-0.0105 -0.397198,0.0466 -0.316954,0.12684 0.08025,0.0802 0.288531,0.0888 0.462855,0.019 z m 0.806322,16.93413 c 0.07435,-0.0744 -0.05967,-0.20939 -0.297835,-0.30007 -0.344171,-0.13105 -0.371908,-0.10332 -0.135186,0.13518 0.163812,0.16504 0.358669,0.23924 0.433021,0.16489 z m 3.736692,1.01259 c 2.257922,0 4.105313,-0.0921 4.105313,-0.20468 0,-0.27949 -5.252447,-0.55947 -6.888422,-0.3672 -2.576561,0.30283 -1.267176,0.57188 2.783109,0.57188 z m -3.244537,-15.02638 c 0.273907,0.15328 0.61793,-0.009 1.251013,-0.58841 0.480268,-0.4399 0.826441,-0.8423 0.769273,-0.89421 -0.169144,-0.15359 -2.125807,-1.1197 -2.26772,-1.1197 -0.0717,0 -0.130366,0.53795 -0.130366,1.19544 0,0.83343 0.114413,1.25948 0.3778,1.40688 z m 3.917588,-29.517185 c 0.242668,-0.24267 -0.05818,-0.26489 -1.880497,-0.13891 l -1.811168,0.12521 1.779878,0.0728 c 0.978932,0.04 1.839237,0.0134 1.911787,-0.0591 z m -3.184326,41.331835 c 0.129615,0.0432 0.586121,-0.18 1.014455,-0.49602 0.611023,-0.4508 0.711483,-0.63043 0.466349,-0.83387 -0.229453,-0.19043 -0.521621,-0.12686 -1.100009,0.23935 -0.74611,0.4724 -0.901361,0.91701 -0.380795,1.09054 z m 0.429042,-14.17548 c 0.05014,0 0.240318,-0.19018 0.422606,-0.42261 0.300381,-0.38302 0.29184,-0.39156 -0.09118,-0.0912 -0.402261,0.31548 -0.530185,0.51379 -0.33143,0.51379 z m 1.686698,12.08312 c 0.504763,0.8545 0.634235,0.87081 1.160212,0.14615 0.730518,-1.00645 0.660062,-1.47374 -0.235181,-1.55971 -0.439278,-0.0422 -0.860807,-0.2386 -0.936734,-0.43646 -0.104316,-0.27184 -0.239214,-0.19409 -0.552068,0.3182 -0.280265,0.45892 -0.324378,0.70024 -0.136543,0.74698 0.152612,0.038 0.467755,0.39115 0.700314,0.78484 z m -0.22502,-8.34004 c 0.450513,0.5584 0.651007,0.65932 0.874633,0.44028 0.225273,-0.22065 0.170914,-0.47709 -0.24316,-1.14707 -0.531762,-0.86041 -0.752403,-1.00687 -1.057377,-0.7019 -0.286399,0.2864 -0.170629,0.6693 0.425904,1.40869 z m 0.741365,-36.693535 c 1.612286,0.94487 2.70932,1.01478 4.262549,0.27163 2.093027,-1.0014 2.180335,-1.11461 1.820437,-2.36036 l -0.307225,-1.06343 -2.042706,-0.0749 c -1.123489,-0.0412 -2.497357,-0.008 -3.053041,0.0728 -0.923288,0.13494 -1.041282,0.23502 -1.369497,1.16159 -0.197538,0.55766 -0.36774,1.09085 -0.378225,1.18487 -0.01048,0.094 0.469981,0.45753 1.067708,0.80782 z m -0.18119,34.671675 c 0.383016,0.30039 0.391558,0.29184 0.09118,-0.0912 -0.182288,-0.23244 -0.372461,-0.42261 -0.422606,-0.42261 -0.198755,0 -0.07083,0.19831 0.331429,0.51378 z m 0.081,13.11761 c 0.125809,-0.0777 0.165126,-0.2443 0.08737,-0.37011 -0.07775,-0.12581 -0.244303,-0.16513 -0.370111,-0.0874 -0.125809,0.0777 -0.165126,0.2443 -0.08737,0.37011 0.07775,0.12581 0.244303,0.16512 0.370111,0.0874 z m 0.05502,-8.03971 c 0.181151,-0.15034 0.698882,-0.20124 1.207445,-0.11871 1.00216,0.16262 0.986427,0.19388 0.625005,-1.24146 l -0.26531,-1.05364 -0.93297,0.64484 c -0.709768,0.49057 -0.935164,0.81079 -0.942136,1.3385 -0.0072,0.54586 0.05841,0.63759 0.307966,0.43047 z m 1.614781,-122.5755653 0,1.31061 0.965957,0 0.965956,0 0,-1.30672 c 0,-1.15546 0.08386,-1.37729 0.724467,-1.91632 0.398457,-0.33528 0.724468,-0.67095 0.724468,-0.74594 0,-0.075 -1.165796,-0.13633 -2.590657,-0.13633 l -2.590658,0 0.900236,0.74205 c 0.837582,0.6904 0.900231,0.83325 0.900231,2.05265 z m -1.112537,1.7935903 c 0.0522,0 0.159625,-0.16865 0.238724,-0.3747803 0.08247,-0.2149 0.04198,-0.31184 -0.09491,-0.22723 -0.229466,0.14181 -0.339401,0.6020103 -0.143817,0.6020103 z m 3.112108,1.14242 c 0.560475,-0.0506 0.04101,-0.0915 -1.154359,-0.0907 -1.195371,7.3e-4 -1.653938,0.0422 -1.019043,0.0921 0.634899,0.0499 1.61293,0.0493 2.173402,-10e-4 z M 24.066569,133.92081 c 0.218237,0.0838 0.420455,0.12254 0.449371,0.0862 0.114973,-0.14445 0.360167,-2.11871 0.263137,-2.11871 -0.05712,0 -0.266237,-0.0623 -0.464712,-0.13848 -0.382955,-0.14695 -0.567697,0.26666 -0.616582,1.38046 -0.01705,0.38843 0.127299,0.69786 0.368786,0.79052 z m 4.83e-4,3.96448 c 0.107768,-0.0443 0.216767,-0.2224 0.242222,-0.39584 0.03637,-0.24781 -0.02838,-0.25337 -0.302397,-0.026 -0.349048,0.28969 -0.308589,0.57329 0.06017,0.4218 z M 25.73668,1.0012147 c 1.155453,0 1.770641,-0.0886 1.676171,-0.24147996 -0.269328,-0.43579 -3.501591,-0.28718 -3.501591,0.16099 0,0.0443 0.821439,0.0805 1.82542,0.0805 z m 1.381595,86.6295703 c 0.560475,-0.0507 0.04101,-0.0915 -1.154359,-0.0907 -1.195371,7.3e-4 -1.653939,0.0422 -1.019043,0.0921 0.634899,0.0499 1.61293,0.0493 2.173402,-0.001 z M 24.31867,8.9128047 c 0.06044,-0.23089 0.06264,-0.66557 0.0049,-0.96596 -0.05776,-0.30039 -0.107216,-0.11148 -0.109896,0.41979 -0.0027,0.53128 0.04458,0.77705 0.105023,0.54617 z m 2.183211,3.1316603 c 0.501032,-0.0523 0.150279,-0.0959 -0.779454,-0.097 -0.929733,-10e-4 -1.33967,0.0417 -0.910969,0.095 0.428698,0.0533 1.189389,0.0542 1.690423,0.002 z m -1.851902,1.03121 c 0.12498,0 0.227236,-0.10867 0.227236,-0.24149 0,-0.13282 -0.169419,-0.24149 -0.376486,-0.24149 -0.207067,0 -0.309323,0.10867 -0.227236,0.24149 0.08209,0.13282 0.251506,0.24149 0.376486,0.24149 z m 1.32819,74.13715 c 1.155453,0 1.770641,-0.0886 1.676171,-0.24148 -0.269328,-0.43579 -3.501592,-0.28718 -3.501592,0.16099 0,0.0443 0.82144,0.0805 1.825421,0.0805 z m -0.255742,-82.5892703 1.32819,0 0,-1.56968 0,-1.56968 -1.32819,0 -1.32819,0 0,1.56968 0,1.56968 1.32819,0 z m 0.241489,81.1403403 1.32819,0 -0.0056,-1.7508 c -0.0031,-0.96293 -0.163563,-16.25825 -0.356646,-33.98959 -0.193082,-17.73134 -0.353574,-33.18966 -0.356645,-34.35182 l -0.0056,-2.11303 -0.843683,0 -0.843686,0 -0.06345,18.17205 c -0.0349,9.99463 -0.08992,26.24081 -0.122271,36.10262 l -0.05882,17.93057 1.32819,0 z m -1.161724,12.25557 c 0.06074,-0.23243 0.06074,-0.61278 0,-0.84521 -0.06074,-0.23243 -0.11044,-0.0423 -0.11044,0.42261 0,0.46486 0.0497,0.65503 0.11044,0.4226 z m 1.340025,-5.56457 c 0.300391,-0.0578 0.111486,-0.10722 -0.41979,-0.1099 -0.531276,-0.003 -0.777051,0.0446 -0.546166,0.10503 0.230885,0.0604 0.665566,0.0626 0.965956,0.005 z m 0,48.297815 c 0.300391,-0.0578 0.111486,-0.10722 -0.41979,-0.1099 -0.531276,-0.003 -0.777051,0.0446 -0.546166,0.10503 0.230885,0.0604 0.665566,0.0626 0.965956,0.005 z m -0.514698,-8.62291 c 0.34717,0 0.247689,-0.41902 -0.134282,-0.56559 -0.233887,-0.0897 -0.305404,-0.0182 -0.215652,0.21565 0.07385,0.19247 0.231325,0.34994 0.349934,0.34994 z m 0.09491,-119.295615 c 0.199229,0 0.362234,-0.10867 0.362234,-0.24149 0,-0.13282 -0.163005,-0.24149 -0.362234,-0.24149 -0.199228,0 -0.362234,0.10867 -0.362234,0.24149 0,0.13282 0.163006,0.24149 0.362234,0.24149 z M 25.506088,133.27184 c 0.08024,-0.0802 0.08882,-0.28853 0.01905,-0.46286 -0.07709,-0.19264 -0.134311,-0.13542 -0.145898,0.14591 -0.01048,0.25456 0.04659,0.39719 0.126835,0.31695 z m 0.39745,-35.252375 c 0.166024,-0.0553 0.301861,-0.29985 0.301861,-0.54335 0,-0.2435 -0.135837,-0.48801 -0.301861,-0.54335 -0.19118,-0.0637 -0.301861,0.1355 -0.301861,0.54335 0,0.40785 0.110681,0.60708 0.301861,0.54335 z m 0.315955,34.593305 c 0.195229,-0.89732 0.229448,-2.12855 0.05618,-2.02146 -0.105062,0.0649 -0.178414,0.62783 -0.163007,1.25088 0.01541,0.62305 0.06348,0.96981 0.106825,0.77058 z M 26.915614,13.075675 c 0.19139,0 0.415144,-0.10867 0.497231,-0.24149 0.08209,-0.13282 -0.0745,-0.24149 -0.347981,-0.24149 -0.273477,0 -0.497231,0.10867 -0.497231,0.24149 0,0.13282 0.156591,0.24149 0.347981,0.24149 z m -0.106492,85.00416 c 0.177169,0.27415 0.234993,0.16793 0.237792,-0.43685 0.0022,-0.47201 -0.09515,-0.73801 -0.237792,-0.64985 -0.303373,0.1875 -0.303373,0.61727 0,1.0867 z M 27.458023,8.9128047 c 0.06044,-0.23089 0.06263,-0.66557 0.0049,-0.96596 -0.05776,-0.30039 -0.107217,-0.11148 -0.109897,0.41979 -0.0027,0.53128 0.04458,0.77705 0.105023,0.54617 z M 27.714706,146.43913 c 1.854926,1.65838 7.805804,1.40445 8.858084,-0.37797 0.211206,-0.35776 0.126436,-0.55204 -0.466338,-1.06879 l -0.724467,-0.63156 -0.07334,0.98961 c -0.04034,0.54429 -0.219047,1.11054 -0.397133,1.25834 -0.205819,0.17082 -1.269576,0.24366 -2.919558,0.19993 -2.848144,-0.0755 -3.224369,-0.26625 -2.919646,-1.48036 0.174587,-0.69561 1.117659,-0.93091 1.117659,-0.27887 0,0.2918 0.375651,0.36224 1.931913,0.36224 1.606704,0 1.931913,-0.0648 1.931913,-0.38484 0,-0.21167 0.238688,-0.44726 0.530419,-0.52355 1.757915,-0.45971 -3.012224,-0.72826 -5.075575,-0.28575 -1.206228,0.25869 -2.216539,0.95532 -2.216539,1.52835 0,0.17347 0.190173,0.48542 0.422606,0.69322 z M 27.624766,7.2799347 c 0.05015,0 0.240318,-0.19017 0.422606,-0.4226 0.300381,-0.38302 0.291839,-0.39156 -0.09118,-0.0912 -0.40226,0.31547 -0.530184,0.51378 -0.331429,0.51378 z m 6.18754,89.8339503 c 3.863826,0 6.037227,-0.0869 6.037227,-0.24149 0,-0.15455 -2.173401,-0.24149 -6.037227,-0.24149 -3.863826,0 -6.037228,0.0869 -6.037228,0.24149 0,0.15455 2.173402,0.24149 6.037228,0.24149 z m 3.078986,0.66342 c 1.693442,-0.0415 0.307899,-0.0755 -3.078986,-0.0755 -3.386885,0 -4.772428,0.034 -3.078986,0.0755 1.693442,0.0415 4.46453,0.0415 6.157972,0 z m -2.173402,0.72405 c 1.294985,-0.0434 0.235452,-0.0789 -2.354519,-0.0789 -2.58997,0 -3.649504,0.0355 -2.354518,0.0789 1.294985,0.0434 3.414052,0.0434 4.709037,0 z m -6.592877,42.887635 c 0.233887,0.0898 0.305404,0.0182 0.215652,-0.21565 -0.07385,-0.19247 -0.231325,-0.34994 -0.349934,-0.34994 -0.34717,0 -0.247688,0.41902 0.134282,0.56559 z m 6.725479,-0.14462 c 1.089236,-0.0446 0.133036,-0.0809 -2.124887,-0.0807 -2.257923,2.4e-4 -3.149114,0.0368 -1.980428,0.0812 1.168689,0.0444 3.016081,0.0441 4.105315,-4.8e-4 z m -2.041571,1.02797 c 3.871512,0 4.090096,-0.0253 4.527921,-0.52393 0.434593,-0.49495 0.435571,-0.51498 0.01768,-0.36223 -0.243296,0.0889 -2.28086,0.16169 -4.527921,0.16169 -3.470618,0 -4.085563,0.0545 -4.085563,0.36224 0,0.30765 0.612979,0.36223 4.067886,0.36223 z m -2.01108,1.2219 c 2.870545,-0.32192 4.770796,0.0762 6.126226,1.28354 l 0.576123,0.51317 -0.294916,-0.56606 c -0.685467,-1.3157 -4.258559,-2.07162 -7.021064,-1.48537 -0.800326,0.16984 -1.419142,0.3448 -1.375145,0.38879 0.04399,0.044 0.938943,-0.0163 1.988776,-0.13407 z m -1.453083,-31.80369 c 0.282023,-0.10822 0.365624,0.0673 0.377541,0.79242 0.01372,0.83434 0.03918,0.87179 0.244353,0.35929 0.276998,-0.6919 0.366484,-2.38381 0.138161,-2.61213 -0.09041,-0.0904 -0.292974,-0.0358 -0.450145,0.12138 -0.220023,0.22002 -0.219096,0.28576 0.004,0.28576 0.483917,0 0.32359,0.65929 -0.193192,0.79444 -0.265638,0.0695 -0.482978,0.1874 -0.482978,0.26207 0,0.0747 0.163005,0.0732 0.362234,-0.003 z m 1.267817,-1.54043 c 0.09962,-0.002 0.452792,-0.29068 0.78484,-0.64086 0.782681,-0.8254 1.910787,-1.28688 3.145854,-1.28688 0.662533,0 0.933385,-0.0883 0.822268,-0.26811 -0.159844,-0.25863 -0.972525,-0.19518 -2.255464,0.1761 -0.512148,0.14822 -0.56481,0.1045 -0.441607,-0.36664 0.112754,-0.43116 0.07612,-0.482 -0.188851,-0.26209 -0.180806,0.15006 -0.36243,0.50945 -0.403608,0.79865 -0.04496,0.31575 -0.38632,0.67052 -0.854483,0.88804 -0.686397,0.31892 -1.100591,0.97311 -0.608949,0.96179 z m 0.389771,4.43038 c 0.42924,1.02731 1.622756,2.0158 2.824686,2.33945 2.452073,0.66027 5.056545,-1.45751 5.056545,-4.11165 0,-1.22602 -0.449885,-2.1214 -1.552181,-3.08923 -3.209049,-2.81759 -7.999961,0.86238 -6.32905,4.86143 z m 3.896661,-2.01132 c 0.199228,0 0.362234,0.163 0.362234,0.36223 0,0.19923 -0.163006,0.36224 -0.362234,0.36224 -0.199229,0 -0.362234,-0.16301 -0.362234,-0.36224 0,-0.19923 0.163005,-0.36223 0.362234,-0.36223 z m -1.630052,30.12057 c 0.498072,-0.0521 0.09056,-0.0947 -0.905584,-0.0947 -0.996142,0 -1.403655,0.0426 -0.905584,0.0947 0.498071,0.0521 1.313097,0.0521 1.811168,0 z m -0.181116,3.6879 c 0.531276,0 0.965956,-0.10867 0.965956,-0.24149 0,-0.13281 -0.43468,-0.24148 -0.965956,-0.24148 -0.531276,0 -0.965957,0.10867 -0.965957,0.24148 0,0.13282 0.434681,0.24149 0.965957,0.24149 z m 1.866945,-38.95388 c 0.234961,-0.0612 0.101191,-0.11535 -0.297266,-0.12027 -0.398457,-0.005 -0.590697,0.0452 -0.427202,0.11132 0.163496,0.0661 0.489506,0.0702 0.724468,0.009 z m 0.12534,10.13513 c 0.166023,-0.067 0.03019,-0.12181 -0.301862,-0.12181 -0.332047,0 -0.467885,0.0548 -0.301861,0.12181 0.166024,0.067 0.437699,0.067 0.603723,0 z m 2.071672,12.55567 c 0.242892,-0.21982 0.70474,-0.4073 1.026329,-0.41664 0.321588,-0.009 0.802048,-0.11036 1.067686,-0.22451 0.391654,-0.1683 0.317903,-0.21076 -0.390039,-0.22452 -0.778904,-0.0151 -2.145597,0.70125 -2.145597,1.12468 0,0.0774 0.198729,-0.0392 0.441621,-0.25901 z m 0.04136,-21.52996 c 0.132819,-0.0821 0.241489,-0.30584 0.241489,-0.49723 0,-0.19139 -0.10867,-0.34798 -0.241489,-0.34798 -0.132819,0 -0.241489,0.22375 -0.241489,0.49723 0,0.27348 0.10867,0.43007 0.241489,0.34798 z m 0.09695,24.34785 c 0.199211,0.0765 0.387094,-0.0562 0.456713,-0.32241 0.154416,-0.59049 -0.03944,-0.76532 -0.449464,-0.40537 -0.423726,0.37199 -0.42567,0.56722 -0.0072,0.72778 z m 1.155776,-34.446165 c 0.192643,-0.0771 0.135422,-0.13431 -0.1459,-0.1459 -0.254569,-0.0105 -0.397199,0.0466 -0.316955,0.12683 0.08025,0.0802 0.288531,0.0888 0.462855,0.0191 z m -0.166024,0.64683 c 0.199229,-0.0765 0.362234,-0.18171 0.362234,-0.23391 0,-0.0522 -0.163005,-0.0949 -0.362234,-0.0949 -0.199228,0 -0.362233,0.10526 -0.362233,0.23391 0,0.12865 0.163005,0.17136 0.362233,0.0949 z m 0.166024,1.043585 c 0.192643,-0.0771 0.135422,-0.13431 -0.1459,-0.1459 -0.254569,-0.0105 -0.397199,0.0466 -0.316955,0.12684 0.08025,0.0802 0.288531,0.0888 0.462855,0.019 z m 0,0.48298 c 0.192643,-0.0771 0.135422,-0.13431 -0.1459,-0.1459 -0.254569,-0.0105 -0.397199,0.0466 -0.316955,0.12684 0.08025,0.0802 0.288531,0.0888 0.462855,0.019 z m 0.638719,34.12715 c 0.112653,-0.33796 0.06465,-0.38035 -0.683998,-0.60399 l -0.603723,-0.18034 0.59847,0.52834 c 0.366228,0.32331 0.633699,0.42265 0.689251,0.25599 z m -0.683998,6.58951 c 0.313902,0.0821 0.482978,0.007 0.482978,-0.21332 0,-0.18679 -0.21734,-0.33963 -0.482978,-0.33963 -0.265638,0 -0.482978,0.096 -0.482978,0.21333 0,0.11733 0.21734,0.27016 0.482978,0.33962 z m 0.54335,-7.80132 c 0.431662,-0.002 0.661574,-0.0835 0.510914,-0.18111 -0.150658,-0.0976 -0.329311,-0.39476 -0.397008,-0.6604 -0.117188,-0.45984 -0.131445,-0.45695 -0.29759,0.0604 -0.09598,0.29884 -0.270504,0.54335 -0.387831,0.54335 -0.117328,0 -0.213324,0.0543 -0.213324,0.12075 0,0.0664 0.353178,0.11908 0.784839,0.11704 z m -0.301861,-1.92821 c 0.132819,0 0.241489,-0.33243 0.241489,-0.73872 0,-0.43099 -0.1006,-0.67655 -0.241489,-0.58947 -0.132819,0.0821 -0.241489,0.41451 -0.241489,0.73872 0,0.32421 0.10867,0.58947 0.241489,0.58947 z m 0.241489,-27.04678 c 0.132819,0 0.241489,-0.10867 0.241489,-0.24149 0,-0.13282 -0.10867,-0.24149 -0.241489,-0.24149 -0.132819,0 -0.241489,0.10867 -0.241489,0.24149 0,0.13282 0.10867,0.24149 0.241489,0.24149 z m 0.416192,6.47187 c 0.361724,0.55786 0.823572,1.00859 1.026329,1.00163 0.262245,-0.009 0.211819,-0.12207 -0.174703,-0.39169 -0.598603,-0.41757 -0.71001,-0.93709 -0.241489,-1.12614 0.166023,-0.067 0.04468,-0.13038 -0.269654,-0.14087 -0.448999,-0.015 -0.54444,-0.1226 -0.445214,-0.50204 0.08209,-0.3139 0.0074,-0.48298 -0.213325,-0.48298 -0.511833,0 -0.411794,0.51649 0.318056,1.64209 z m -0.110305,24.95168 c 0.236722,-0.2385 0.208985,-0.26624 -0.135186,-0.13519 -0.238161,0.0907 -0.372187,0.22572 -0.297835,0.30007 0.07435,0.0743 0.269209,1.6e-4 0.433021,-0.16488 z m -0.129648,8.35639 c 0.05228,-0.50103 0.0514,-1.26172 -0.0019,-1.69042 -0.05335,-0.4287 -0.09612,-0.0188 -0.09505,0.91097 9.66e-4,0.92973 0.04472,1.28049 0.097,0.77945 z m 1.478968,-34.73945 c 0.04704,-0.1325 0.01347,-0.72143 -0.0746,-1.30875 -0.159912,-1.06637 -0.160946,-1.06731 -0.746699,-0.68351 l -0.586565,0.38433 0.661171,0.92441 c 0.363644,0.50843 0.699659,0.81601 0.746698,0.68352 z m -0.861686,4.20359 c 0.225747,0.0866 0.284472,-0.10414 0.215068,-0.69863 -0.05251,-0.44979 -0.192254,-0.8178 -0.310543,-0.8178 -0.338162,0 -0.251062,1.38345 0.09548,1.51643 z m 0.673673,17.45771 c 0.568533,0 0.578161,0.0528 -0.107994,-0.59183 l -0.572713,-0.53804 0.107993,0.56494 c 0.06865,0.35913 0.27729,0.56493 0.572714,0.56493 z m -0.518944,1.06946 c 0.12308,0 0.259174,0.18378 0.302434,0.4084 0.062,0.32194 0.135519,0.28359 0.347254,-0.18111 0.243564,-0.53457 0.215367,-0.58953 -0.302433,-0.58953 -0.314072,0 -0.571038,0.0815 -0.571038,0.18112 0,0.0996 0.100701,0.18112 0.223783,0.18112 z m 0.505642,14.50192 c 0.504208,1.27919 1.193261,2.38146 1.496989,2.39473 0.09557,0.004 0.717249,-0.78028 1.381513,-1.74321 0.664267,-0.96294 1.967093,-2.8375 2.895174,-4.16569 5.445572,-7.79325 5.415,-7.70923 4.851693,-13.33362 -0.130175,-1.29974 -0.405958,-4.86258 -0.612851,-7.91742 -0.206896,-3.05484 -0.529859,-7.67332 -0.717701,-10.26329 -0.18784,-2.58997 -0.414101,-5.98591 -0.502802,-7.54653 -0.0887,-1.56063 -0.198893,-2.8375 -0.244873,-2.8375 -0.04598,0 -0.457752,0.17842 -0.91505,0.39649 -1.021361,0.48706 -1.599822,0.301 -1.599822,-0.51456 l 0,-0.61621 -0.965956,0.49279 c -0.863819,0.44069 -0.96656,0.58803 -0.971649,1.39347 -0.0054,0.84859 -0.07626,0.93169 -1.22595,1.437 -0.936572,0.41164 -1.192563,0.6362 -1.10113,0.96596 0.06552,0.2363 0.18123,1.40766 0.25713,2.60303 0.0759,1.19537 0.355016,5.16183 0.620255,8.81436 1.252218,17.24386 1.267907,17.6376 0.761456,19.10962 -0.252578,0.73413 -1.23214,2.50945 -2.176797,3.94514 l -1.717565,2.61035 0,1.7686 c 0,1.20514 0.155449,2.16296 0.487936,3.00649 z m -0.08651,-33.51919 c 0.06699,-0.16602 0.06699,-0.4377 0,-0.60372 -0.06699,-0.16603 -0.121805,-0.0302 -0.121805,0.30186 0,0.33205 0.05481,0.46788 0.121805,0.30186 z m 0.482978,-7.72765 c 0.06699,-0.16603 0.06699,-0.4377 0,-0.60372 -0.06699,-0.16603 -0.121805,-0.0302 -0.121805,0.30186 0,0.33204 0.05481,0.46788 0.121805,0.30186 z m 0.241489,3.38085 c 0.06699,-0.16603 0.06699,-0.4377 0,-0.60373 -0.06699,-0.16602 -0.121804,-0.0302 -0.121804,0.30186 0,0.33205 0.05481,0.46789 0.121804,0.30187 z m 0.08156,4.16568 c 0.291398,-0.67812 0.291398,-1.62903 0,-1.44893 -0.132819,0.0821 -0.233851,0.55035 -0.224515,1.04058 0.01367,0.71835 0.05725,0.7976 0.224515,0.40835 z m 0.158402,-7.54194 c 0.06615,-0.16349 0.07017,-0.4895 0.0089,-0.72446 -0.06123,-0.23497 -0.115349,-0.10119 -0.120271,0.29726 -0.0049,0.39846 0.04517,0.5907 0.111324,0.4272 z m 0.765064,-12.473845 c 0.04605,-0.39674 -0.07611,-0.85362 -0.283752,-1.06126 -0.32515,-0.32515 -0.3339,-0.24976 -0.08085,0.69666 0.260828,0.97553 0.290282,1.00498 0.364605,0.3646 z m -0.505738,15.240995 c 0.05227,-0.50104 0.0514,-1.26173 -0.0019,-1.69043 -0.05335,-0.4287 -0.09612,-0.0188 -0.09505,0.91097 9.66e-4,0.92974 0.04472,1.28049 0.097,0.77946 z m -0.0058,7.85378 c 0.05756,-0.29884 0.05756,-0.78786 0,-1.0867 -0.05756,-0.29885 -0.104654,-0.0543 -0.104654,0.54335 0,0.59768 0.04709,0.84219 0.104654,0.54335 z m 0.245756,-4.10532 c 0.05357,-0.43166 0.05357,-1.13801 0,-1.56968 -0.05357,-0.43166 -0.0974,-0.0785 -0.0974,0.78484 0,0.86333 0.04383,1.21651 0.0974,0.78484 z m -0.0043,7.00319 c 0.05756,-0.29885 0.05756,-0.78786 0,-1.0867 -0.05756,-0.29885 -0.104654,-0.0543 -0.104654,0.54335 0,0.59768 0.0471,0.84219 0.104654,0.54335 z m 0.241489,-11.59148 c 0.05756,-0.29884 0.05756,-0.78786 0,-1.0867 -0.05756,-0.29884 -0.104654,-0.0543 -0.104654,0.54335 0,0.59769 0.04709,0.84219 0.104654,0.54335 z m 0.07562,10.4444 c 0.124546,1.13155 0.144766,0.6126 0.06116,-1.56967 -0.06869,-1.79306 -0.165915,-3.30539 -0.216053,-3.36073 -0.148687,-0.16412 -0.04597,3.10547 0.154889,4.9304 z m -0.07959,4.89016 c 0.06074,-0.23243 0.06074,-0.61278 0,-0.84521 -0.06074,-0.23244 -0.110438,-0.0423 -0.110438,0.4226 0,0.46487 0.0497,0.65504 0.110438,0.42261 z m 0.85988,-19.85265 c 0.431662,-0.18099 0.820406,-0.50401 0.863879,-0.7178 0.07148,-0.35153 -0.0036,-0.34931 -0.78484,0.0232 -1.140306,0.54377 -1.211505,1.16941 -0.07904,0.69456 z m -0.614414,8.38192 c 0.05756,-0.29885 0.05756,-0.78786 0,-1.0867 -0.05756,-0.29885 -0.104654,-0.0543 -0.104654,0.54335 0,0.59768 0.04709,0.84219 0.104654,0.54335 z m -0.004,14.61009 c 0.06074,-0.23244 0.06074,-0.61278 0,-0.84521 -0.06074,-0.23244 -0.110438,-0.0423 -0.110438,0.4226 0,0.46487 0.0497,0.65504 0.110438,0.42261 z m 0.234957,-29.823905 c 0.06699,-0.16602 0.06699,-0.4377 0,-0.60372 -0.06699,-0.16602 -0.121802,-0.0302 -0.121802,0.30186 0,0.33205 0.05481,0.46789 0.121802,0.30186 z m 4.247245,2.77481 c 0.830119,-0.0472 0.150931,-0.0857 -1.509307,-0.0857 -1.660238,0 -2.339426,0.0386 -1.509307,0.0857 0.830119,0.0472 2.188495,0.0472 3.018614,0 z m -4.24456,2.114565 c 0.121938,-0.60911 1.791716,-1.326085 3.100022,-1.331105 0.529881,-0.002 1.126426,-0.10904 1.325655,-0.23779 0.246927,-0.15958 -0.425678,-0.23527 -2.11303,-0.23779 l -2.475263,-0.004 0.03289,1.147065 c 0.01809,0.6309 0.07647,0.92939 0.12973,0.66332 z m 0.0033,13.34587 c 0.06044,-0.23089 0.06264,-0.66557 0.0049,-0.96596 -0.05776,-0.30039 -0.107217,-0.11149 -0.109897,0.41979 -0.0027,0.53128 0.04458,0.77705 0.105023,0.54617 z m 0.0088,8.08706 c 0.05357,-0.43166 0.05357,-1.13801 0,-1.56967 -0.05357,-0.43167 -0.0974,-0.0785 -0.0974,0.78484 0,0.86332 0.04383,1.2165 0.0974,0.78483 z m 0.233261,-4.70903 c 0.06074,-0.23244 0.06074,-0.61278 0,-0.84521 -0.06074,-0.23244 -0.110438,-0.0423 -0.110438,0.4226 0,0.46487 0.0497,0.65504 0.110438,0.42261 z m 0.0082,7.84839 c 0.05357,-0.43166 0.05357,-1.13801 0,-1.56968 -0.05357,-0.43166 -0.0974,-0.0785 -0.0974,0.78484 0,0.86333 0.04383,1.21651 0.0974,0.78484 z m 0.226732,-4.58829 c 0.06699,-0.16602 0.06699,-0.4377 0,-0.60372 -0.06699,-0.16603 -0.121805,-0.0302 -0.121805,0.30186 0,0.33205 0.05481,0.46788 0.121805,0.30186 z m 0.01304,7.8484 c 0.05533,-0.36526 0.05533,-0.96294 0,-1.32819 -0.05533,-0.36526 -0.100602,-0.0664 -0.100602,0.66409 0,0.73051 0.04527,1.02935 0.100602,0.6641 z m 0.746868,-27.47309 c 0.351917,-0.003 0.35829,-0.036 0.04612,-0.23779 -0.472928,-0.30563 -0.792613,-0.30563 -0.603723,0 0.08208,0.13282 0.333006,0.23983 0.557601,0.23779 z m -0.507919,23.48852 c 0.05756,-0.29885 0.05756,-0.78786 0,-1.0867 -0.05756,-0.29885 -0.104654,-0.0543 -0.104654,0.54335 0,0.59768 0.04709,0.84219 0.104654,0.54335 z m 0.0025,7.36541 c 0.05533,-0.36525 0.05533,-0.96293 0,-1.32819 -0.05533,-0.36525 -0.100602,-0.0664 -0.100602,0.6641 0,0.7305 0.04527,1.02935 0.100602,0.66409 z m 0.234445,-3.86101 c 0.06044,-0.23088 0.06264,-0.66556 0.0049,-0.96595 -0.05776,-0.30039 -0.107216,-0.11149 -0.109897,0.41979 -0.0027,0.53127 0.04458,0.77705 0.105022,0.54616 z m 0.245558,3.74359 c 0.05732,-0.29702 0.0588,-0.84037 0.0033,-1.20745 -0.05551,-0.36707 -0.102406,-0.12406 -0.10422,0.54003 -0.0017,0.6641 0.0436,0.96444 0.100923,0.66742 z m 0.458885,-29.59077 c 0.08024,-0.0802 0.08882,-0.28853 0.01908,-0.46285 -0.07709,-0.19264 -0.134312,-0.13542 -0.145898,0.1459 -0.01048,0.25457 0.04659,0.3972 0.126835,0.31695 z m 3.959417,-1.98725 c 0.608043,-0.31443 0.994307,-0.845205 0.615085,-0.845205 -0.407702,0 -1.339552,0.619235 -1.339552,0.890165 0,0.26858 0.134255,0.26025 0.724467,-0.045 z m 1.373368,1.9951 c 0.06044,-0.23089 0.06264,-0.66557 0.0049,-0.96596 -0.05776,-0.30039 -0.107217,-0.11148 -0.109897,0.41979 -0.0027,0.53128 0.04458,0.77706 0.105021,0.54617 z m 0.24203,2.89505 c 0.06074,-0.23243 0.06074,-0.61278 0,-0.84521 -0.06074,-0.23243 -0.110438,-0.0423 -0.110438,0.42261 0,0.46486 0.0497,0.65504 0.110438,0.4226 z m 0.220924,3.8588 c 0.08024,-0.0802 0.08882,-0.28853 0.01908,-0.46286 -0.07709,-0.19264 -0.134311,-0.13542 -0.145898,0.1459 -0.01048,0.25457 0.04659,0.3972 0.126835,0.31696 z m 0.261513,3.63018 c 0.06044,-0.23088 0.06264,-0.66556 0.0049,-0.96596 -0.05776,-0.30039 -0.107216,-0.11148 -0.109897,0.4198 -0.0027,0.53127 0.04458,0.77705 0.105021,0.54616 z m 0.24203,3.13654 c 0.06074,-0.23243 0.06074,-0.61277 0,-0.84521 -0.06074,-0.23243 -0.110438,-0.0423 -0.110438,0.42261 0,0.46486 0.0497,0.65504 0.110438,0.4226 z m 0.220924,3.37582 c 0.08024,-0.0802 0.08882,-0.28853 0.01908,-0.46285 -0.07709,-0.19265 -0.134312,-0.13543 -0.145899,0.1459 -0.01048,0.25456 0.04659,0.3972 0.126835,0.31695 z m 0.241489,3.13936 c 0.08024,-0.0802 0.08882,-0.28853 0.01908,-0.46286 -0.07709,-0.19264 -0.134312,-0.13542 -0.145898,0.1459 -0.01048,0.25457 0.04659,0.3972 0.126834,0.31696 z m 0.241489,3.13936 c 0.08025,-0.0802 0.08882,-0.28853 0.01908,-0.46286 -0.07709,-0.19264 -0.134312,-0.13542 -0.145898,0.1459 -0.01048,0.25457 0.04659,0.3972 0.126835,0.31696 z m 0.512616,8.46353 c 0.05189,-0.49456 0.05261,-1.36392 0.0017,-1.93191 -0.05101,-0.568 -0.09347,-0.16335 -0.09435,0.8992 -9.66e-4,1.06255 0.04086,1.52727 0.09275,1.03271 z"
     id="path2987"
     inkscape:connector-curvature="0" />
</svg>
