<?xml version="1.0" encoding="UTF-8" standalone="no"?>
<!-- Created with Inkscape (http://www.inkscape.org/) -->

<svg
   xmlns:dc="http://purl.org/dc/elements/1.1/"
   xmlns:cc="http://creativecommons.org/ns#"
   xmlns:rdf="http://www.w3.org/1999/02/22-rdf-syntax-ns#"
   xmlns:svg="http://www.w3.org/2000/svg"
   xmlns="http://www.w3.org/2000/svg"
   xmlns:sodipodi="http://sodipodi.sourceforge.net/DTD/sodipodi-0.dtd"
   xmlns:inkscape="http://www.inkscape.org/namespaces/inkscape"
   width="52.941269"
   height="151.20428"
   id="svg2998"
   version="1.1"
   inkscape:version="0.48.4 r9939"
   sodipodi:docname="Новый документ 2">
  <defs
     id="defs3000" />
  <sodipodi:namedview
     id="base"
     pagecolor="#ffffff"
     bordercolor="#666666"
     borderopacity="1.0"
     inkscape:pageopacity="0.0"
     inkscape:pageshadow="2"
     inkscape:zoom="0.35"
     inkscape:cx="61.472519"
     inkscape:cy="152.74769"
     inkscape:document-units="px"
     inkscape:current-layer="layer1"
     showgrid="false"
     fit-margin-top="0"
     fit-margin-left="0"
     fit-margin-right="0"
     fit-margin-bottom="0"
     inkscape:window-width="562"
     inkscape:window-height="442"
     inkscape:window-x="-2"
     inkscape:window-y="0"
     inkscape:window-maximized="0" />
  <metadata
     id="metadata3003">
    <rdf:RDF>
      <cc:Work
         rdf:about="">
        <dc:format>image/svg+xml</dc:format>
        <dc:type
           rdf:resource="http://purl.org/dc/dcmitype/StillImage" />
        <dc:title></dc:title>
      </cc:Work>
    </rdf:RDF>
  </metadata>
  <g
     inkscape:label="Layer 1"
     inkscape:groupmode="layer"
     id="layer1"
     transform="translate(-313.52748,-533.90558)">
    <path
       style="fill:#668152;fill-opacity:1;stroke:#000000;stroke-width:1;stroke-miterlimit:4;stroke-opacity:1;stroke-dasharray:none;display:inline"
       d="m 314.13304,667.4772 c 1.03333,-10.7503 1.32368,-22.58274 2.38911,-33.9091 0.0515,-0.45193 0.28005,-0.49073 3.5566,-0.60372 1.66667,-0.24842 4.03257,0.37172 3.27704,-1.3551 -0.31393,-0.12047 -0.37917,-0.61984 -0.37917,-2.90211 l 0,-2.75661 1.13398,-0.71915 1.13398,-0.71915 4.87368,0 c 3.61148,0 4.93509,-0.0782 5.1108,-0.30186 0.13041,-0.16602 0.43016,-0.81804 0.6661,-1.44893 0.23593,-0.63089 0.55379,-1.14708 0.70633,-1.14708 0.15255,0 0.45168,-0.29884 0.66473,-0.66409 0.34863,-0.59769 0.40505,-4.28684 0.56426,-36.89402 0.16232,-33.2452 0.14464,-36.25669 -0.21456,-36.5548 -0.2962,-0.24583 -0.39144,-0.75834 -0.39144,-2.10647 0,-1.02674 0.10231,-1.7816 0.24148,-1.7816 0.54755,0 0.22392,-1.3754 -0.48297,-2.05265 -0.91357,-0.87525 -0.95993,-1.83239 -0.12075,-2.49249 0.44125,-0.34709 0.60372,-0.70542 0.60372,-1.33147 0,-0.47112 -0.10867,-0.92374 -0.24148,-1.00583 -0.40052,-0.24753 -0.27164,-1.46754 0.20013,-1.89448 0.66509,-0.6019 4.15842,-0.5708 4.71296,0.042 0.44076,0.48703 0.53734,1.61819 0.15818,1.85252 -0.13282,0.0821 -0.24149,0.53471 -0.24149,1.00583 0,0.62605 0.16247,0.98438 0.60372,1.33147 0.79083,0.62206 0.79408,1.62575 0.008,2.36455 -0.58336,0.54804 -0.59287,0.61589 -0.44605,3.18201 0.12918,2.25779 0.0935,2.68451 -0.25706,3.07184 -0.38153,0.42159 -0.3832,2.71198 -0.0266,36.49628 0.40561,38.42717 0.36532,37.43144 1.5146,37.43144 0.28993,0 0.57067,0.42523 0.91674,1.38857 l 0.49883,1.38856 5.05392,0.12074 c 4.7216,0.11281 5.11188,0.1568 5.93553,0.66899 0.48489,0.30153 0.94674,0.71793 1.02633,0.92533 0.0796,0.2074 0.1447,1.45491 0.1447,2.77224 0,1.96802 -0.0646,2.39514 -0.36223,2.39514 -0.25247,0 -0.36223,0.2542 -0.36223,0.83892 l 0,0.83892 3.68271,0.0667 3.68271,0.0667 c 0.34761,12.17178 2.22637,22.63406 2.29414,34.56551 0,2.86728 -0.0321,3.06086 -0.72609,4.38149 -0.39936,0.75992 -1.80523,2.90306 -3.12418,4.76252 -1.31895,1.85947 -3.06526,4.33171 -3.8807,5.49388 l -1.48261,2.11303 c -11.32244,-0.63751 -23.04855,0.97699 -34.24834,-0.30186 -1.05259,-1.46227 -2.10519,-3.07776 -3.03169,-4.42576 -0.90634,-1.31797 -2.13185,-3.10266 -2.72335,-3.96599 -1.19777,-1.74822 -2.06096,-3.49575 -2.44531,-4.95052 -0.24596,-0.931 -0.35462,-3.07326 -0.16637,-3.28023 z"
       id="path2987-3-6"
       inkscape:connector-curvature="0"
       sodipodi:nodetypes="ccccscccscsssssssssscsccsccssssscsscssscccccsscccsscc" />
  </g>
</svg>
